# AST/ASF file generated using VICON BodyLanguage
# -----------------------------------------------
:version 1.10
:name VICON
:units
  mass 1.0
  length 0.45
  angle deg
:documentation
   .ast/.asf automatically generated from VICON data using
   VICON BodyBuilder and BodyLanguage model FoxedUp or BRILLIANT.MOD
:root
   order TX TY TZ RX RY RZ
   axis XYZ
   position 0 0 0  
   orientation 0 0 0 
:bonedata
  begin
     id 1 
     name lhipjoint
     direction 0.54267 -0.795011 0.271047 
     length 2.39899 
     axis 0 0 0  XYZ
  end
  begin
     id 2 
     name lfemur
     direction 0.34202 -0.939693 0  
     length 7.49701  
     axis 0 0 20  XYZ
    dof rx ry rz
    limits (-160.0 20.0)
           (-70.0 70.0)
           (-60.0 70.0)
  end
  begin
     id 3 
     name ltibia
     direction 0.34202 -0.939693 0   
     length 8.1668   
     axis 0 0 20   XYZ
    dof rx
    limits (-10.0 170.0)
  end
  begin
     id 4 
     name lfoot
     direction 0.0736283 -0.202292 0.976554   
     length 2.13544   
     axis -90 7.62852e-016 20   XYZ
    dof rx rz
    limits (-45.0 90.0)
           (-70.0 20.0)
  end
  begin
     id 5 
     name ltoes
     direction 1.53557e-011 -4.22024e-011 1   
     length 1.07411   
     axis -90 7.62852e-016 20   XYZ
    dof rx
    limits (-90.0 20.0)
  end
  begin
     id 6 
     name rhipjoint
     direction -0.538061 -0.797813 0.272002   
     length 2.39057  
     axis 0 0 0  XYZ 
  end
  begin
     id 7 
     name rfemur
     direction -0.34202 -0.939693 0   
     length 7.50152   
     axis 0 0 -20   XYZ
    dof rx ry rz
    limits (-160.0 20.0)
           (-70.0 70.0)
           (-70.0 60.0)
  end
  begin
     id 8 
     name rtibia
     direction -0.34202 -0.939693 0   
     length 8.05793   
     axis 0 0 -20   XYZ
    dof rx
    limits (-10.0 170.0)
 end
 begin
     id 9 
     name rfoot
     direction -0.0765195 -0.210236 0.974652   
     length 2.28698  
     axis -90 -7.62852e-016 -20   XYZ
    dof rx rz
    limits (-45.0 90.0)
           (-20.0 70.0)
  end
  begin
     id 10 
     name rtoes
     direction -1.53542e-011 -4.21847e-011 1   
     length 1.14762   
     axis -90 -7.62852e-016 -20   XYZ
    dof rx
    limits (-90.0 20.0)
  end
  begin
     id 11 
     name lowerback
     direction -0.0217239 0.996592 -0.0795765   
     length 2.08176   
     axis 0 0 0   XYZ
    dof rx ry rz
    limits (-20.0 45.0)
           (-30.0 30.0)
           (-30.0 30.0)
  end
  begin
     id 12 
     name upperback
     direction -0.00563773 0.999651 -0.0258155   
     length 2.08898   
     axis 0 0 0   XYZ
    dof rx ry rz
    limits (-20.0 45.0)
           (-30.0 30.0)
           (-30.0 30.0)
  end
  begin
     id 13 
     name thorax
     direction 0.0032706 0.999923 0.0119599   
     length 2.0968   
     axis 0 0 0   XYZ
    dof rx ry rz
    limits (-20.0 45.0)
           (-30.0 30.0)
           (-30.0 30.0)
  end
  begin
     id 14 
     name lowerneck
     direction -0.0285886 0.99568 0.0883427   
     length 1.81272   
     axis 0 0 0   XYZ
    dof rx ry rz
    limits (-20.0 45.0)
           (-30.0 30.0)
           (-30.0 30.0)
  end
  begin
     id 15 
     name upperneck
     direction 0.0807535 0.97985 -0.18268   
     length 1.82518   
     axis 0 0 0   XYZ
    dof rx ry rz
    limits (-20.0 45.0)
           (-30.0 30.0)
           (-30.0 30.0)
  end
  begin
     id 16
     name head
     direction 0.0236605 0.997053 -0.0729767  
     length 1.84443  
     axis 0 0 0   XYZ
    dof rx ry rz
    limits (-20.0 45.0)
           (-30.0 30.0)
           (-30.0 30.0)
  end
  begin
     id 17 
     name lclavicle
     direction 0.918986 0.39378 -0.0200683  
     length 3.27822  
     axis 0 0 0   XYZ
    dof ry rz
    limits (-20.0 10.0)
           (0.0 20.0)
  end
  begin
     id 18 
     name lhumerus
     direction 1 -4.4897e-011 2.09544e-027   
     length 5.5568   
     axis 180 -30 -90   XYZ
    dof rx ry rz
    limits (-60.0 90.0)
           (-90.0 90.0)
           (-90.0 90.0)
  end
  begin
     id 19
     name lradius
     direction 1 -4.48957e-011 -1.27696e-026   
     length 3.63979   
     axis 180 -30 -90   XYZ
    dof rx
    limits (-10.0 170.0)
  end
  begin
     id 20
     name lwrist
     direction 1 -4.49001e-011 -1.49001e-026   
     length 1.8199   
     axis 9.0955e-015 90 90   XYZ
    dof ry
    limits (-180.0 0.0)
 end
  begin
     id 21 
     name lhand
     direction 1 -4.48709e-011 -2.9758e-026   
     length 0.569419   
     axis 1.90115e-014 90 90   XYZ
    dof rx rz
    limits (-90.0 90.0)
           (-45.0 45.0)
  end
  begin
     id 22 
     name lfingers
     direction 1 -4.49175e-011 -5.96505e-026   
     length 0.45908   
     axis 3.80223e-014 90 90   XYZ
    dof rx
    limits (0.0 90.0)
  end
  begin
     id 23
     name lthumb
     direction 0.707107 -6.34864e-011 0.707107   
     length 0.65915   
     axis -90 45 -3.84942e-014   XYZ
    dof rx rz
    limits (-45.0 45.0)
           (-45.0 45.0)
  end
  begin
     id 24 
     name rclavicle
     direction -0.911913 0.396426 -0.106115   
     length 3.46301  
     axis 0 0 0   XYZ 
    dof ry rz
    limits (-10.0 20.0)
           (-20.0 0.0)
  end
  begin
     id 25 
     name rhumerus
     direction -1 -4.48965e-011 7.78516e-028  
     length 5.34339   
     axis 180 30 90   XYZ
    dof rx ry rz
    limits (-90.0 60.0)
           (-90.0 90.0)
           (-90.0 90.0)
  end
  begin
     id 26 
     name rradius
     direction -1 -4.48948e-011 -5.79823e-027   
     length 3.65101   
     axis 180 30 90   XYZ
    dof rx
    limits (-10.0 170.0)
  end
  begin
     id 27 
     name rwrist
     direction -1 -4.48995e-011 -1.48996e-026   
     length 1.8255   
     axis 9.0955e-015 -90 -90   XYZ
    dof ry
    limits (-180.0 0.0)
  end
  begin
     id 28
     name rhand
     direction -1 -4.48957e-011 -2.97937e-026   
     length 0.694249   
     axis 1.90115e-014 -90 -90   XYZ
    dof rx rz
    limits (-90.0 90.0)
           (-45.0 45.0)
  end
  begin
     id 29
     name rfingers
     direction -1 -4.4898e-011 -5.95943e-026   
     length 0.559721   
     axis 3.80223e-014 -90 -90   XYZ
    dof rx
    limits (0.0 90.0)
  end
  begin
     id 30
     name rthumb
     direction -0.707107 -6.34969e-011 0.707107   
     length 0.803651   
     axis -90 -45 3.84942e-014   XYZ
    dof rx rz
    limits (-45.0 45.0)
           (-45.0 45.0)
  end
:hierarchy
  begin
    root lhipjoint rhipjoint lowerback
    lhipjoint lfemur
    lfemur ltibia
    ltibia lfoot
    lfoot ltoes
    rhipjoint rfemur
    rfemur rtibia
    rtibia rfoot
    rfoot rtoes
    lowerback upperback
    upperback thorax
    thorax lowerneck lclavicle rclavicle
    lowerneck upperneck
    upperneck head
    lclavicle lhumerus
    lhumerus lradius
    lradius lwrist
    lwrist lhand lthumb
    lhand lfingers
    rclavicle rhumerus
    rhumerus rradius
    rradius rwrist
    rwrist rhand rthumb
    rhand rfingers
  end

#!OML:ASF H:\Terrain\Walking\May29\JustinRory\rory.ASF
:FULLY-SPECIFIED
:DEGREES
117
root 12.313 18.6371 7.88458 0.230669 1.11544 -0.826825
lowerback 3.44945 -3.53177 2.28604
upperback 1.50012 -4.61128 3.74998
thorax -0.257607 -2.30946 2.73742
lowerneck -4.66743 -13.4899 -10.5328
upperneck 26.5669 -20.3564 9.11004
head 11.4614 -9.50747 2.43724
rclavicle -5.11871e-014 -4.77083e-015
rhumerus -53.3161 19.6755 -97.9823
rradius 103.492
rwrist -14.7854
rhand -10.7081 37.7229
rfingers 7.12502
rthumb 15.3016 8.309
lclavicle -5.11871e-014 -4.77083e-015
lhumerus -36.2188 -10.7917 78.3269
lradius 94.6208
lwrist 30.0761
lhand 1.07938 22.9182
lfingers 7.12502
lthumb 26.6238 51.0663
rfemur -12.0874 9.55719 23.0941
rtibia 24.6458
rfoot -9.42328 -9.02624
rtoes 10.4161
lfemur -17.2007 8.87359 -15.6048
ltibia 62.6552
lfoot -0.943256 0.276426
ltoes -11.5043
118
root 12.2874 18.6224 7.98749 1.14594 -1.00756 -1.047
lowerback 2.82328 -2.75339 2.02739
upperback 1.28893 -3.60334 3.90267
thorax -0.129854 -1.80757 2.97547
lowerneck -5.00472 -13.1999 -10.0565
upperneck 26.9961 -19.8933 8.63793
head 11.523 -9.27656 2.2547
rclavicle 7.65321e-014 -4.13472e-014
rhumerus -53.1828 20.0445 -98.3835
rradius 104.422
rwrist -14.8953
rhand -9.63834 38.1926
rfingers 7.12502
rthumb 16.3319 8.86033
lclavicle 7.65321e-014 -4.13472e-014
lhumerus -35.6485 -10.6925 77.2254
lradius 96.29
lwrist 31.1248
lhand 2.41865 22.6581
lfingers 7.12502
lthumb 27.9049 50.6049
rfemur -12.6589 10.7348 23.3167
rtibia 24.5746
rfoot -9.83127 -8.26804
rtoes 9.45502
lfemur -19.0941 10.9043 -15.3017
ltibia 62.8884
lfoot -1.67895 0.640765
ltoes -11.9791
119
root 12.3111 18.5985 8.11133 0.749886 -0.142124 -0.897609
lowerback 3.04242 -2.96482 2.25473
upperback 1.36868 -3.87139 3.76215
thorax -0.185274 -1.93958 2.72171
lowerneck -5.54044 -12.9412 -9.56798
upperneck 27.7256 -19.4861 8.09556
head 11.7439 -9.05924 2.01522
rclavicle -2.00773e-014 2.70347e-014
rhumerus -52.7701 20.3355 -98.6902
rradius 105.128
rwrist -15.0017
rhand -8.93773 38.4464
rfingers 7.12502
rthumb 17.0064 9.17089
lclavicle -2.00773e-014 2.70347e-014
lhumerus -34.696 -10.8255 76.0444
lradius 97.6743
lwrist 32.5824
lhand 3.26525 22.3949
lfingers 7.12502
lthumb 28.714 50.2075
rfemur -11.4352 10.1172 23.3058
rtibia 24.4773
rfoot -10.5463 -8.8549
rtoes 7.02365
lfemur -19.7247 9.87537 -15.4229
ltibia 62.861
lfoot -2.65294 0.993749
ltoes -12.2138
120
root 12.3295 18.5732 8.22849 0.548522 0.150411 -1.06794
lowerback 3.45449 -3.10485 2.69612
upperback 1.24572 -4.01682 3.69834
thorax -0.572071 -2.01073 2.44561
lowerneck -6.06568 -12.5859 -9.2139
upperneck 28.5551 -18.9573 7.61379
head 12.0207 -8.79554 1.83263
rclavicle -1.77912e-014 -7.15625e-015
rhumerus -52.9996 20.8597 -99.2766
rradius 106.129
rwrist -15.1941
rhand -8.94064 37.8812
rfingers 7.12502
rthumb 17.0036 8.60543
lclavicle -1.77912e-014 -7.15625e-015
lhumerus -34.1633 -10.5848 74.731
lradius 99.1312
lwrist 33.8634
lhand 3.57162 22.2858
lfingers 7.12502
lthumb 29.0066 50.0484
rfemur -10.5997 10.0912 23.6057
rtibia 24.3587
rfoot -10.5875 -9.5077
rtoes 2.88983
lfemur -20.4857 9.33976 -15.1824
ltibia 62.6788
lfoot -3.95999 1.21988
ltoes -13.8974
121
root 12.3325 18.5584 8.33939 0.712768 -0.905777 -1.16605
lowerback 4.24586 -2.83772 2.71034
upperback 0.63789 -3.58974 3.71358
thorax -1.64918 -1.80056 2.50327
lowerneck -6.07032 -12.2789 -9.12698
upperneck 29.3821 -18.4662 7.03706
head 12.2252 -8.61295 1.68311
rclavicle -7.45443e-015 5.24792e-014
rhumerus -54.5009 21.3811 -100.047
rradius 107.73
rwrist -15.5804
rhand -9.10775 37.579
rfingers 7.12502
rthumb 16.8427 8.28941
lclavicle -7.45443e-015 5.24792e-014
lhumerus -34.5006 -10.1764 73.4855
lradius 100.781
lwrist 35.0619
lhand 4.07144 22.6994
lfingers 7.12502
lthumb 29.4839 50.3789
rfemur -10.3702 10.6495 23.7394
rtibia 24.2722
rfoot -10.7033 -9.33549
rtoes 1.41533
lfemur -21.3866 10.0049 -15.0103
ltibia 62.2333
lfoot -5.17877 1.64409
ltoes -15.6468
122
root 12.3592 18.5518 8.46801 0.178612 -0.303291 -0.954384
lowerback 5.24392 -3.05456 2.77203
upperback 0.269509 -3.80649 3.60337
thorax -2.59409 -1.91044 2.44456
lowerneck -5.74194 -12.0941 -9.19844
upperneck 29.8625 -18.1588 6.6619
head 12.2878 -8.52921 1.62533
rclavicle 7.12643e-014 -2.54444e-014
rhumerus -54.7666 21.2626 -100.507
rradius 107.691
rwrist -15.6448
rhand -8.7535 38.7014
rfingers 7.12502
rthumb 17.1837 9.4412
lclavicle 7.12643e-014 -2.54444e-014
lhumerus -34.4941 -10.0014 72.2689
lradius 102.153
lwrist 36.1283
lhand 4.41308 23.2188
lfingers 7.12502
lthumb 29.81 50.8403
rfemur -9.25974 10.3881 23.643
rtibia 24.3434
rfoot -11.3409 -10.0153
rtoes 2.37126
lfemur -21.6178 8.9294 -15.1802
ltibia 61.4764
lfoot -6.36959 2.28592
ltoes -13.9832
123
root 12.3519 18.5603 8.5935 0.363863 -1.44817 -1.07434
lowerback 5.01476 -2.5871 2.71951
upperback 0.290101 -3.20086 3.59529
thorax -2.45409 -1.6083 2.40707
lowerneck -5.8084 -11.947 -9.11171
upperneck 29.9359 -17.9673 6.69238
head 12.3052 -8.42734 1.64961
rclavicle 4.07509e-014 -3.26007e-014
rhumerus -54.6959 21.1266 -100.803
rradius 108.255
rwrist -15.5163
rhand -8.63378 38.8164
rfingers 7.12502
rthumb 17.2989 9.56634
lclavicle 4.07509e-014 -3.26007e-014
lhumerus -33.4928 -9.8241 70.7896
lradius 103.15
lwrist 37.0298
lhand 4.00937 22.6787
lfingers 7.12502
lthumb 29.4246 50.3687
rfemur -9.24299 11.5658 23.8164
rtibia 24.6206
rfoot -11.7574 -9.98496
rtoes 5.54846
lfemur -22.2896 9.66076 -14.898
ltibia 60.4775
lfoot -7.48141 2.61586
ltoes -11.7672
124
root 12.3587 18.5736 8.70759 0.645761 -2.43532 -1.14816
lowerback 4.6976 -2.21585 2.88801
upperback 0.383564 -2.72079 3.49408
thorax -2.20243 -1.37034 2.15677
lowerneck -6.1921 -11.8209 -8.84619
upperneck 30.0397 -17.7816 6.61112
head 12.3673 -8.30808 1.58378
rclavicle -3.96575e-014 1.82882e-014
rhumerus -54.46 21.0342 -100.963
rradius 108.859
rwrist -15.2804
rhand -8.62936 38.5552
rfingers 7.12502
rthumb 17.3032 9.30549
lclavicle -3.96575e-014 1.82882e-014
lhumerus -32.2628 -9.31923 69.1491
lradius 104.145
lwrist 37.9345
lhand 3.47229 21.8087
lfingers 7.12502
lthumb 28.9118 49.5876
rfemur -9.49431 12.2177 23.8172
rtibia 24.915
rfoot -12.2128 -9.28596
rtoes 9.5228
lfemur -22.9634 10.2327 -14.782
ltibia 59.2438
lfoot -8.30344 2.917
ltoes -12.2334
125
root 12.3769 18.5679 8.82235 0.740891 -2.07399 -1.0584
lowerback 4.20882 -2.31555 3.0151
upperback 0.636389 -2.88758 3.36924
thorax -1.67851 -1.45193 1.93706
lowerneck -6.59635 -11.7522 -8.57872
upperneck 30.0058 -17.6269 6.42735
head 12.3693 -8.21597 1.47615
rclavicle 2.33572e-014 -6.36111e-015
rhumerus -53.7789 21.1284 -100.899
rradius 109.185
rwrist -15.2575
rhand -8.36431 38.4524
rfingers 7.12502
rthumb 17.5583 9.2253
lclavicle 2.33572e-014 -6.36111e-015
lhumerus -30.8942 -8.40061 67.537
lradius 105.149
lwrist 38.773
lhand 3.03915 21.6581
lfingers 7.12502
lthumb 28.498 49.5071
rfemur -9.24671 11.6601 23.7789
rtibia 25.1297
rfoot -12.701 -9.36049
rtoes 7.20623
lfemur -23.5878 9.46073 -14.8579
ltibia 57.8905
lfoot -8.75219 3.15795
ltoes -13.2732
126
root 12.3855 18.5447 8.93029 0.687444 -2.22828 -1.07422
lowerback 3.78499 -2.19247 3.03324
upperback 1.10602 -2.76871 3.29266
thorax -0.964254 -1.3876 1.8091
lowerneck -6.94336 -11.7856 -8.74219
upperneck 29.7865 -17.6859 6.74542
head 12.4096 -8.2121 1.58406
rclavicle 1.92821e-014 -2.3059e-014
rhumerus -52.8673 21.1179 -100.663
rradius 109.38
rwrist -15.4216
rhand -7.98351 38.2456
rfingers 7.12502
rthumb 17.9247 9.05165
lclavicle 1.92821e-014 -2.3059e-014
lhumerus -29.109 -7.46359 65.9445
lradius 105.835
lwrist 39.5122
lhand 1.98525 21.4477
lfingers 7.12502
lthumb 27.4905 49.4612
rfemur -8.61719 11.1072 23.9953
rtibia 25.3318
rfoot -12.9086 -9.77657
rtoes -0.496455
lfemur -24.052 9.01211 -14.6767
ltibia 56.4545
lfoot -9.34912 3.22194
ltoes -13.2279
127
root 12.389 18.5404 9.04246 0.49203 -2.60096 -1.01516
lowerback 4.3146 -2.09162 2.83073
upperback 1.01737 -2.61082 3.28273
thorax -1.34435 -1.31073 1.92888
lowerneck -6.59106 -11.7346 -9.27733
upperneck 29.7562 -17.6512 7.09237
head 12.4207 -8.22912 1.81775
rclavicle 1.41137e-014 -2.22639e-014
rhumerus -53.1074 21.0278 -100.69
rradius 109.482
rwrist -15.4378
rhand -7.58351 38.1871
rfingers 7.12502
rthumb 18.3095 9.02884
lclavicle 1.41137e-014 -2.22639e-014
lhumerus -28.24 -6.70583 64.4535
lradius 106.385
lwrist 40.1935
lhand 0.19979 20.8392
lfingers 7.12502
lthumb 25.7817 49.1123
rfemur -8.10555 11.6638 24.0024
rtibia 25.4058
rfoot -13.3432 -9.77342
rtoes 2.23545
lfemur -24.1895 8.773 -14.542
ltibia 54.8141
lfoot -10.1984 3.26527
ltoes -13.544
